<mxfile host="app.diagrams.net" modified="2021-08-11T21:46:46.155Z" agent="5.0 (Windows NT 10.0; Win64; x64) AppleWebKit/537.36 (KHTML, like Gecko) Chrome/92.0.4515.131 Safari/537.36 Edg/92.0.902.67" etag="dbnqdCjv_JSJwm8t77nC" version="14.9.2" type="github">
  <diagram id="C5RBs43oDa-KdzZeNtuy" name="Page-1">
    <mxGraphModel dx="814" dy="955" grid="1" gridSize="10" guides="1" tooltips="1" connect="1" arrows="1" fold="1" page="1" pageScale="1" pageWidth="827" pageHeight="1169" math="0" shadow="0">
      <root>
        <mxCell id="WIyWlLk6GJQsqaUBKTNV-0" />
        <mxCell id="WIyWlLk6GJQsqaUBKTNV-1" parent="WIyWlLk6GJQsqaUBKTNV-0" />
        <mxCell id="kQRV_vyzxNTparTXR3uk-7" value="" style="group" vertex="1" connectable="0" parent="WIyWlLk6GJQsqaUBKTNV-1">
          <mxGeometry x="40" y="80" width="210" height="290" as="geometry" />
        </mxCell>
        <mxCell id="kQRV_vyzxNTparTXR3uk-6" value="Actor" style="shape=umlActor;verticalLabelPosition=bottom;verticalAlign=top;html=1;outlineConnect=0;" vertex="1" parent="kQRV_vyzxNTparTXR3uk-7">
          <mxGeometry y="214.34782608695653" width="42.85714285714286" height="75.65217391304348" as="geometry" />
        </mxCell>
        <mxCell id="kQRV_vyzxNTparTXR3uk-9" value="" style="group" vertex="1" connectable="0" parent="kQRV_vyzxNTparTXR3uk-7">
          <mxGeometry width="210" height="126.08695652173914" as="geometry" />
        </mxCell>
        <mxCell id="kQRV_vyzxNTparTXR3uk-0" value="Actor" style="shape=umlActor;verticalLabelPosition=bottom;verticalAlign=top;html=1;" vertex="1" parent="kQRV_vyzxNTparTXR3uk-9">
          <mxGeometry y="50.434782608695656" width="42.85714285714286" height="75.65217391304348" as="geometry" />
        </mxCell>
        <mxCell id="kQRV_vyzxNTparTXR3uk-4" value="弹出 Toast" style="whiteSpace=wrap;html=1;rounded=1;arcSize=50;align=center;verticalAlign=middle;strokeWidth=1;autosize=1;spacing=4;treeFolding=1;treeMoving=1;newEdgeStyle={&quot;edgeStyle&quot;:&quot;entityRelationEdgeStyle&quot;,&quot;startArrow&quot;:&quot;none&quot;,&quot;endArrow&quot;:&quot;none&quot;,&quot;segment&quot;:10,&quot;curved&quot;:1};" vertex="1" parent="kQRV_vyzxNTparTXR3uk-9">
          <mxGeometry x="108.14285714285714" y="1" width="100" height="30" as="geometry" />
        </mxCell>
        <mxCell id="kQRV_vyzxNTparTXR3uk-5" value="" style="edgeStyle=entityRelationEdgeStyle;startArrow=none;endArrow=none;segment=10;curved=1;" edge="1" target="kQRV_vyzxNTparTXR3uk-4" parent="kQRV_vyzxNTparTXR3uk-9">
          <mxGeometry relative="1" as="geometry">
            <mxPoint x="35.714285714285715" y="50.434782608695656" as="sourcePoint" />
          </mxGeometry>
        </mxCell>
        <mxCell id="kQRV_vyzxNTparTXR3uk-1" value="dispatch" style="html=1;verticalAlign=bottom;startArrow=circle;startFill=1;endArrow=open;startSize=6;endSize=8;" edge="1" parent="WIyWlLk6GJQsqaUBKTNV-1">
          <mxGeometry width="80" relative="1" as="geometry">
            <mxPoint x="249.9957142857143" y="95.50217391304349" as="sourcePoint" />
            <mxPoint x="364.2814285714286" y="95.50217391304349" as="targetPoint" />
          </mxGeometry>
        </mxCell>
        <mxCell id="kQRV_vyzxNTparTXR3uk-25" value="dispatch" style="html=1;verticalAlign=bottom;startArrow=circle;startFill=1;endArrow=open;startSize=6;endSize=8;" edge="1" parent="WIyWlLk6GJQsqaUBKTNV-1">
          <mxGeometry width="80" relative="1" as="geometry">
            <mxPoint x="250" y="110" as="sourcePoint" />
            <mxPoint x="360" y="150" as="targetPoint" />
          </mxGeometry>
        </mxCell>
        <mxCell id="kQRV_vyzxNTparTXR3uk-26" value="dispatch" style="html=1;verticalAlign=bottom;startArrow=circle;startFill=1;endArrow=open;startSize=6;endSize=8;" edge="1" parent="WIyWlLk6GJQsqaUBKTNV-1">
          <mxGeometry width="80" relative="1" as="geometry">
            <mxPoint x="250" y="120" as="sourcePoint" />
            <mxPoint x="360" y="190" as="targetPoint" />
          </mxGeometry>
        </mxCell>
        <mxCell id="kQRV_vyzxNTparTXR3uk-27" value="dispatch" style="html=1;verticalAlign=bottom;startArrow=circle;startFill=1;endArrow=open;startSize=6;endSize=8;" edge="1" parent="WIyWlLk6GJQsqaUBKTNV-1">
          <mxGeometry width="80" relative="1" as="geometry">
            <mxPoint x="250" y="140" as="sourcePoint" />
            <mxPoint x="364.2814285714285" y="270.0021739130434" as="targetPoint" />
          </mxGeometry>
        </mxCell>
      </root>
    </mxGraphModel>
  </diagram>
</mxfile>
